<svg xmlns="http://www.w3.org/2000/svg" width="1200" height="1200" viewBox="0 0 1200 1200">
<rect width="1200" height="1200" fill="#003156"/>
<g transform="translate(0,285)" font-family="Hiragino Sans">
  <rect width="1200" height="630" fill="#003156"/>
  <g transform="translate(80,84) scale(1.0)">
    <rect width="100" height="100" rx="22" fill="#ffffff" opacity="0"/>
    <path d="M50 22 L80 45 L80 76 L20 76 L20 45 Z" fill="#e8f1ff"/>
    <g fill="#003156">
      <rect x="28" y="53" width="9" height="9" rx="1.4"/><rect x="45.5" y="53" width="9" height="9" rx="1.4"/><rect x="63" y="53" width="9" height="9" rx="1.4"/>
      <rect x="28" y="64.5" width="9" height="9" rx="1.4"/><rect x="63" y="64.5" width="9" height="9" rx="1.4"/>
    </g>
    <rect x="45.5" y="64.5" width="9" height="9" rx="1.4" fill="#FFB94D"/>
  </g>
  <text x="80" y="268" font-size="78" font-weight="700" fill="#ffffff">家主の帳面</text>
  <text x="80" y="322" font-size="27" fill="#a7c6e8">賃貸物件の入居者・修繕管理アプリ</text>
  <line x1="80" y1="418" x2="500" y2="418" stroke="#6fa1d0" stroke-width="2" opacity="0.45"/>
  <text x="80" y="470" font-size="20" fill="#6fa1d0">React Router v8 / Cloudflare Workers / D1</text>
  <text x="80" y="506" font-size="20" fill="#6fa1d0">chomen-demo.kazuki.page</text>
<rect x="620" y="70" width="520" height="490" rx="20" fill="#ffffff"/>
<text x="644" y="116" font-size="26" font-weight="700" fill="#0f172a">部屋・駐車場</text>
<line x1="644" y1="134" x2="1116" y2="134" stroke="#e2e8f0" stroke-width="2"/>
<rect x="640" y="152" width="148" height="84" rx="12" fill="#ffffff" stroke="#e2e8f0" stroke-width="2"/>
<text x="656" y="189" font-size="27" font-weight="700" fill="#0f172a">101</text>
<text x="656" y="216" font-size="19" fill="#64748b">68,000円</text>
<rect x="806" y="152" width="148" height="84" rx="12" fill="#ffffff" stroke="#e2e8f0" stroke-width="2"/>
<text x="822" y="189" font-size="27" font-weight="700" fill="#0f172a">102</text>
<text x="822" y="216" font-size="19" fill="#64748b">70,000円</text>
<rect x="972" y="152" width="148" height="84" rx="12" fill="#ffffff" stroke="#e2e8f0" stroke-width="2"/>
<text x="988" y="189" font-size="27" font-weight="700" fill="#0f172a">103</text>
<text x="988" y="216" font-size="19" fill="#64748b">72,000円</text>
<rect x="640" y="250" width="148" height="84" rx="12" fill="#ffffff" stroke="#e2e8f0" stroke-width="2"/>
<text x="656" y="287" font-size="27" font-weight="700" fill="#0f172a">104</text>
<text x="656" y="314" font-size="19" fill="#64748b">74,000円</text>
<rect x="806" y="250" width="148" height="84" rx="12" fill="#fff7ea" stroke="#ffcb7e" stroke-width="2"/>
<text x="822" y="287" font-size="27" font-weight="700" fill="#0f172a">105</text>
<text x="822" y="314" font-size="19" font-weight="700" fill="#9a5c00">空室・募集中</text>
<rect x="972" y="250" width="148" height="84" rx="12" fill="#ffffff" stroke="#e2e8f0" stroke-width="2"/>
<text x="988" y="287" font-size="27" font-weight="700" fill="#0f172a">106</text>
<text x="988" y="314" font-size="19" fill="#64748b">76,000円</text>
<rect x="640" y="348" width="148" height="84" rx="12" fill="#ffffff" stroke="#e2e8f0" stroke-width="2"/>
<text x="656" y="385" font-size="27" font-weight="700" fill="#0f172a">107</text>
<text x="656" y="412" font-size="19" fill="#64748b">78,000円</text>
<rect x="806" y="348" width="148" height="84" rx="12" fill="#ffffff" stroke="#e2e8f0" stroke-width="2"/>
<text x="822" y="385" font-size="27" font-weight="700" fill="#0f172a">108</text>
<text x="822" y="412" font-size="19" fill="#64748b">68,000円</text>
<rect x="972" y="348" width="148" height="84" rx="12" fill="#ffffff" stroke="#e2e8f0" stroke-width="2"/>
<text x="988" y="385" font-size="27" font-weight="700" fill="#0f172a">109</text>
<text x="988" y="412" font-size="19" fill="#64748b">70,000円</text>
<rect x="640" y="446" width="148" height="84" rx="12" fill="#ffffff" stroke="#e2e8f0" stroke-width="2"/>
<text x="656" y="483" font-size="27" font-weight="700" fill="#0f172a">110</text>
<text x="656" y="510" font-size="19" fill="#64748b">72,000円</text>
<rect x="806" y="446" width="148" height="84" rx="12" fill="#ffffff" stroke="#e2e8f0" stroke-width="2"/>
<text x="822" y="483" font-size="27" font-weight="700" fill="#0f172a">P1</text>
<text x="822" y="510" font-size="19" fill="#64748b">8,000円</text>
<rect x="972" y="446" width="148" height="84" rx="12" fill="#ffffff" stroke="#e2e8f0" stroke-width="2"/>
<text x="988" y="483" font-size="27" font-weight="700" fill="#0f172a">P2</text>
<text x="988" y="510" font-size="19" fill="#64748b">8,000円</text>
</g>
</svg>
